<svg
            width="200"
            viewBox="0 0 320.00000000000006 84.99822033002103"
            className="css-1j8o68f"
        >
            <defs id="SvgjsDefs1609"></defs>
            <g
                transform="matrix(2.8561227321624756,0,0,2.8561227321624756,-6.2834695931109925,-30.846123952328682)"
                fill="#383838"
            >
                <path d="M28.48 40 l-6.44 0 l-2.48 -2.64 c-2.2 1.92 -5.04 3.2 -8.36 3.2 c-4.84 0 -9 -3.2 -9 -8.2 c0 -3.04 1.68 -6.04 5.16 -8.08 c-1.28 -1.52 -2.16 -3.08 -2.16 -5.08 c0 -4.96 3.64 -7.76 8.8 -7.76 c4.64 0 7.84 3.12 8.4 6.56 l-4.72 1.36 c-0.48 -1.96 -1.8 -3.24 -3.8 -3.24 c-2.04 0 -3.48 1.32 -3.48 3.16 c0 1.4 1.08 2.56 1.88 3.4 l7 7.48 c0.76 -1.36 1.32 -2.84 1.64 -4.28 l4.64 1.32 c-0.4 2 -1.36 4.4 -2.84 6.64 z M11.76 35.76 c1.64 0 3.2 -0.72 4.56 -1.84 l-5.92 -6.28 c-2 1.24 -2.92 2.6 -2.92 4.32 c0 2 1.64 3.8 4.28 3.8 z M40.33 19.2 c5.6 0 9.96 4.52 9.96 10.68 c0 6.12 -4.36 10.68 -9.96 10.68 c-2.88 0 -5.08 -1.2 -6.56 -3.04 l0 2.48 l-5.28 0 l0 -29.2 l5.28 0 l0 11.4 c1.48 -1.84 3.68 -3 6.56 -3 z M39.41 35.84 c3.32 0 5.68 -2.48 5.68 -6 c0 -3.48 -2.36 -5.92 -5.68 -5.92 c-3.2 0 -5.76 2.44 -5.76 5.92 c0 3.52 2.56 6 5.76 6 z M61.10000000000001 40.56 c-6.24 0 -10.84 -4.64 -10.84 -10.68 c0 -6.08 4.6 -10.68 10.84 -10.68 s10.8 4.6 10.8 10.68 c0 6.04 -4.56 10.68 -10.8 10.68 z M61.10000000000001 35.76 c3.36 0 5.68 -2.52 5.68 -5.88 s-2.32 -5.88 -5.68 -5.88 c-3.4 0 -5.68 2.52 -5.68 5.88 s2.28 5.88 5.68 5.88 z M82.71000000000001 40.56 c-6.24 0 -10.84 -4.64 -10.84 -10.68 c0 -6.08 4.6 -10.68 10.84 -10.68 s10.8 4.6 10.8 10.68 c0 6.04 -4.56 10.68 -10.8 10.68 z M82.71000000000001 35.76 c3.36 0 5.68 -2.52 5.68 -5.88 s-2.32 -5.88 -5.68 -5.88 c-3.4 0 -5.68 2.52 -5.68 5.88 s2.28 5.88 5.68 5.88 z M108.24000000000001 40 l-5.88 -7.8 l-2.36 2.64 l0 5.16 l-5.28 0 l0 -29.2 l5.28 0 l0 17.32 l7.28 -8.36 l6.16 0 l-7.76 8.72 l8.56 11.52 l-6 0 z"></path>
            </g>
        </svg>
